Patient4_TMGait_0pt8_01_left_38_EMG.mot
version=1
nRows=20
nColumns=33
inDegrees=no
endheader
time	1LAddLong	2LGlutMax	3LGlutMed	4LIliopsoas	5LSemiMemb	6LBicFemLong	7LRecFem	8LVastMed	9LVastLat	10LGasMed	11LTibAnt	12lTibPost	13LPeroneusLong	14LSol	15LExtDigLong	16LFlexDigLong	17RAddLong	18RGlutMax	19RGlutMed	20RIliopsoas	21RSemiMemb	22RBicFemLong	23RRecFem	24RVastMed	25RVastLat	26RGasMed	27RTibAnt	28RTibPost	29RPeroneusLong	30RSol	31RExtDigLong	32RFlexDigLong
42.05	-0.001831	0.29831	-0.073395	0.006409	-0.001831	0.028381	0.067902	-0.001526	-0.66666	-0.075989	-0.078583	-0.002136	0.10635	0.065308	0.2005	-0.010986	0.031433	0.36896	0.19257	0.022278	-0.027313	-0.089874	-0.060272	-0.071106	0.044098	-0.0177	0.000763	-0.038452	0.14801	-0.069427	0	-0.002594
42.051	0.006714	0.23499	-0.065918	0.007782	-0.009155	0.031433	0.06546	-0.001984	-0.66742	-0.13641	-0.081329	0.004578	0.1181	0.02655	0.011292	-0.001526	0.013428	0.39871	-0.35629	-0.037384	-0.020142	-0.062408	-0.07309	-0.053558	0.075531	-0.024414	0.12665	0.05722	-0.044098	-0.08667	-0.001831	-0.009003
42.052	0.006256	0.17716	-0.037079	0.009918	-0.009003	0.035553	0.050659	0.004883	-0.57129	-0.10529	0.03891	0.001068	0.038147	-0.023193	0.23575	-0.016632	0.012207	0.42221	-0.47882	0.012665	-0.005035	-0.044861	0.031891	0.18463	0.078583	-0.015259	0.16342	0.028687	-0.085602	-0.15228	-0.001373	0.001526
42.053	0.011292	0.08606	-0.074921	0.036011	-0.009613	0.029144	0.06485	0.006561	-0.44632	0.020142	0.14679	0.013123	-0.035858	-0.055695	-0.26611	-0.015717	0.020599	0.44784	-0.14877	-0.05722	-0.014496	-0.036926	0.096436	0.13519	0.04776	-0.008087	0.16754	0.018158	0.06897	-0.17288	0.000763	0.000916
42.054	0.015869	0.081177	-0.072327	0.024719	-0.010681	0.031281	0.025177	0.009155	-0.31982	0.074158	0.11292	0.005646	-0.051117	-0.061493	-0.27969	-0.008698	0.025177	0.3627	0.12955	-0.10712	-0.031738	-0.062866	0.088501	-0.039215	0.081024	0.000153	-0.037537	-0.001526	-0.1181	-0.11536	0.001526	-0.001221
42.055	0.005493	0.10437	-0.065765	0.000458	-0.014343	0.007019	0.042877	0.004425	-0.20355	0.055542	0.037384	0.010834	-0.001221	-0.04303	-0.22888	-0.009613	0.021057	0.29755	0.42557	-0.11414	-0.032196	-0.045166	0.15091	0.014954	0.12604	0.001984	-0.036011	-0.002441	0.20981	-0.15961	-0.001068	-0.000916
42.056	-0.000153	0.10773	-0.087433	-0.010681	-0.007629	-0.023499	0.044403	-0.000763	-0.12131	0.027618	0.013123	0.016022	0.014801	-0.024414	-0.08667	0.001526	0.003662	0.30762	0.20126	-0.057983	-0.032043	-0.043488	0.13596	-0.031586	0.14023	-0.001984	0.32776	-0.00412	-0.12161	-0.1944	0.000916	-0.001526
42.057	0.005188	0.13321	-0.10376	-0.011292	-0.006256	-0.016327	0.035706	0.008545	-0.050812	0.019226	0.10407	0.007172	-0.068817	-0.020294	0.024567	0.010223	-0.004425	0.30212	0.42175	-0.070648	-0.020752	-0.018311	-0.30853	-0.098572	0.20279	-0.013428	0.31677	-0.002899	0.036774	-0.112	-0.002441	-0.006714
42.058	0.004425	0.15442	-0.084991	-0.018158	-0.007324	-0.019379	-0.005646	-0.00061	-0.00351	0.001526	0.14893	0.005951	-0.13657	-0.05249	0.049133	0.001984	0.008392	0.30548	-0.035553	-0.084686	-0.028687	-0.02243	-0.29999	-0.18021	0.31067	-0.019379	0.082703	-0.005188	-0.11978	-0.019989	-0.00061	-0.010071
42.059	-0.002289	0.15579	-0.049438	0.000763	-0.005341	-0.016174	0.015411	-0.00061	0.044861	-0.02533	0.09552	0.007935	-0.097809	-0.042267	0.03067	-0.015106	0.031281	0.37125	0.15198	-0.081177	-0.034485	-0.059204	-0.05188	-0.24963	0.44876	-0.023346	0.1503	-0.001526	-0.90454	0.019836	-0.001984	-0.019836
42.06	0.000916	0.099945	-0.045013	0.013275	-0.007477	-0.006256	0.002594	0.007324	0.094604	-0.083466	0.080414	0.003204	-0.025177	-0.048676	-0.014801	-0.014801	0.018921	0.38467	0.32013	0.05722	-0.022583	-0.042725	-0.089874	-0.22873	0.24216	-0.012665	0.040588	-0.000458	-0.41138	-0.10315	-0.00061	-0.014038
42.061	-0.005951	0.084991	-0.043793	-0.002899	-0.002747	-0.014954	0.009308	-0.001831	0.13107	-0.066833	-0.021973	0.007324	0.061798	-0.064087	0.35217	-0.000153	0.014496	0.34134	0.36941	0.15182	0.030823	-0.038757	-0.17929	-0.1593	-0.27466	0.006409	-0.023346	-0.001526	2.1172	-0.19424	0.006561	-0.005341
42.062	-0.005951	0.059204	-0.061188	0.00412	-0.008392	-0.01358	0.005035	0.001526	0.17258	-0.006561	-0.062714	0.009766	0.1294	-0.067749	0.070648	-0.003052	0.016479	0.31082	0.42893	0.18539	0.059357	-0.028381	-0.05661	0.00885	-0.64972	0.008087	0.084534	-0.001221	2.5905	-0.15808	-0.003052	-0.002441
42.063	-0.003204	0.020142	-0.041504	0.019226	-0.007019	-0.019226	0.009003	-0.001984	0.2005	0.019836	-0.057678	0.015717	0.19165	-0.021057	0.025635	0.005035	0.005035	0.35233	0.29617	0.18326	0.001831	0.049438	0.004883	0.1326	-0.12909	-0.006256	0.1091	-0.00412	0.034332	-0.028992	-0.00351	-0.011597
42.064	-0.009918	-0.069885	-0.067902	0.009308	0.005188	0.008545	0.003204	0.002747	0.21423	0.058899	-0.04715	0.021973	0.12634	-0.054474	-0.03891	0.011292	-0.003815	0.36285	0.41992	0.066223	-0.16174	0.16022	0.06546	0.11276	0.19745	-0.01236	-0.12436	-0.008698	-1.638	0.043488	-0.000916	-0.008698
42.065	-0.001068	-0.086365	-0.039368	0.020142	-0.010223	0.012054	0.035095	0.004272	0.2179	0.062256	-0.010071	0.005188	0.04303	-0.12909	-0.058594	-0.00061	0.002441	0.4042	0.091553	-0.012817	-0.079041	0.21896	0.000305	0.092468	0.32211	0.003967	-0.52261	-0.002136	-0.68008	-0.17075	-0.001831	0.002747
42.066	-0.003967	-0.073242	-0.047302	-0.005951	-0.001526	-0.002289	0.008087	-0.001831	0.2298	0.062408	0.001831	0.016174	0.032806	-0.11704	-0.088348	0.014343	0.004425	0.37552	-0.13214	-0.003662	-0.000458	0.19623	-0.019073	0.085907	0.35385	-0.001373	-0.41168	-0.007019	-0.16068	0.045013	0.001068	-0.000458
42.067	0.004578	-0.067902	-0.037842	-0.004578	-0.000153	-0.041199	0.017395	0.00473	0.24658	0.057983	0.036926	0.011292	0.02655	-0.14114	-0.12238	0.011444	-0.007324	0.44342	0.051422	0.027161	0.002289	0.17532	-0.14008	0.14572	0.22797	-0.012512	-0.12131	-0.005646	-1.0463	0.054779	0.001831	-0.005341
42.068	0.005951	-0.097046	-0.048218	0.003815	-0.009918	-0.040894	0.02594	0.003052	0.24277	0.027771	0.11627	0.026398	0.013733	-0.12329	-0.11078	0.010529	-0.011597	0.44556	0.022125	0.067139	-0.084991	0.12543	-0.1741	0.19165	0.16235	-0.009766	-0.033875	-0.002747	-0.14297	-0.041046	-0.001526	-0.003967
42.069	0.006866	-0.15411	-0.062561	0.012207	0.000153	-0.028229	0.012817	-0.00061	0.23377	0.005951	0.16541	0.015564	-0.019531	-0.070038	-0.052948	0.00885	-0.016022	0.42862	0.077057	0.036163	-0.048218	0.023041	-0.027313	0.24887	0.019073	-0.007477	-0.029449	-0.004578	-0.16876	0.030975	-0.003662	0.00473
